,
Brought to you by  http://www.scenetime.com/signup.php
 
 Hottest scene tracker on the net !!!   
 
No fake torrents from scenebalance 
shame on those who comment fake before downloading my torrents

    seed back for speed


 



...................................NFO:.................................................General 
Complete name : Justin Bieber Never Say Never 2011 DVDRip Xvid AC3-Freebee.avi 
Format : AVI 
Format/Info : Audio Video Interleave 
File size : 1.40 GiB 
Duration : 1h 45mn 
Overall bit rate : 1 911 Kbps 

Video 
ID : 0 
Format : MPEG-4 Visual 
Format profile : Advanced Simple@L5 
Format settings, BVOP : 2 
Format settings, QPel : No 
Format settings, GMC : No warppoints 
Format settings, Matrix : Default (H.263) 
Codec ID : XVID 
Codec ID/Hint : XviD 
Duration : 1h 45mn 
Bit rate : 1 454 Kbps 
Width : 720 pixels 
Height : 400 pixels 
Display aspect ratio : 16:9 
Frame rate : 23.976 fps 
Color space : YUV 
Chroma subsampling : 4:2:0 
Bit depth : 8 bits 
Scan type : Progressive 
Compression mode : Lossy 
Bits/(Pixel*Frame) : 0.211 
Stream size : 1.07 GiB (76%) 
Writing library : XviD 63 

Audio 
ID : 1 
Format : AC-3 
Format/Info : Audio Coding 3 
Mode extension : CM (complete main) 
Codec ID : 2000 
Duration : 1h 45mn 
Bit rate mode : Constant 
Bit rate : 448 Kbps 
Channel(s) : 6 channels 
Channel positions : Front: L C R, Side: L R, LFE 
Sampling rate : 48.0 KHz 
Bit depth : 16 bits 
Compression mode : Lossy 
Delay relative to video : 500ms 
Stream size : 337 MiB (23%) 
Alignment : Split accross interleaves 
Interleave, duration : 42 ms (1.00 video frame) 
Interleave, preload duration : 500 ms 


   
              Language.............: English, French, Spanish
              Subtitle.............: English, French, Spanish
              Imdb-Rating..........: 1.2/10
              Imdb.................: http://www.imdb.com/title/tt1702443/
              Video-Source.........: TDP....Thanks!
              Audio-Source.........: TDP....Thanks!
              Encoder..............: Freebee269
              Plot.................: Follows Justin Bieber with some footage
 of performances from his 2010 concert tour. 
   
                    
                    Sample Included
                    


                    
                    Greets: All P2P Groups!
                    

 
                                          
                           Respects                  
                    
                     SANTi, TOXiCiNK, LKRG 
                    NPW, FLAWL3SS, BDK, CM8
                      IMAGiNE, ViSiON, Rx  
                          Legion, *THC*